# xmcd
#
# Track frame offsets: 
#        150
#        26382
#        38847
#        49606
#        59602
#        68966
#        79926
#        94637
#        110261
#        124152
#        139604
#        150347
#        165464
#        182116
#
# Disc length: 2563 seconds
#
# Revision: 4
# Processed by: cddbd v1.5.2PL0 Copyright (c) Steve Scherf et al.
# Submitted via: ExactAudioCopy v1.0b4
#
DISCID=af0a010e
DTITLE=Luiz Gonzaga - Para Sempre
DYEAR=2001
DGENRE=Forró
TTITLE0=Samarica Parteira
TTITLE1=O Fole Roncou
TTITLE2=Cantarino
TTITLE3=Baião De São Sebastião
TTITLE4=A Mulher Do Meu Patrão
TTITLE5=Sangue De Nordestino
TTITLE6=Aquarela Nordestina
TTITLE7=Uma Pra mim, Uma Pra Tu
TTITLE8=A Rede Véia
TTITLE9=Pra Não Morrer De tristeza
TTITLE10=Bia No Frevo
TTITLE11=Menino Do Braçanã
TTITLE12=Me Afubelo
TTITLE13=Bom?... Pra uns ...
EXTD=
EXTT0=
EXTT1=
EXTT2=
EXTT3=
EXTT4=
EXTT5=
EXTT6=
EXTT7=
EXTT8=
EXTT9=
EXTT10=
EXTT11=
EXTT12=
EXTT13=
PLAYORDER=
